<svg xmlns="http://www.w3.org/2000/svg" xmlns:xlink="http://www.w3.org/1999/xlink" height="100" width="100" version="1.1">
    <path d="M553 1193q85 14 166 24q52 6 74 9q76 11 88 11q43 0 43 -33q0 -12 -7 -22q-4 -6 -86 -24q4 -94 4 -119q0 -87 -30 -111q-46 -37 -263 -57q1 -26 2 -42q1 -31 1 -50q28 5 65 11q36 6 112 15q51 5 74 9q76 11 88 11q43 0 43 -34q0 -11 -7 -21q-3 -6 -86 -25q0 -47 1 -70
v-32q0 -88 -29 -112q-43 -34 -249 -56q1 -24 1 -37q2 -38 2 -66q106 17 186 27q51 5 75 9q76 11 88 11q43 0 43 -34q0 -11 -7 -21q-3 -6 -87 -24q4 -87 4 -119q0 -87 -30 -111q-36 -29 -175 -47q-12 -2 -71 -8q-3 -1 -18 -3q2 -47 4 -109q1 -15 1 -30q0 -64 -8 -88
q-6 -20 -28 -20q-30 0 -36 32q-9 51 -20 600q-9 460 -9 563q0 213 31 290q57 146 327 146q65 0 65 -42q0 -33 -56 -31q-68 2 -173 -27q-74 -20 -99 -89q-8 -22 -14 -54zM545 1119q-3 -60 -3 -114v-27v-35q172 20 206 44q16 11 16 82q0 31 -6 78zM548 707l6 -159q75 7 153 25
q41 9 51 29q6 11 6 36q0 53 -3 97zM561 300q1 -37 2 -110q0 -15 3 -65q177 22 209 44q16 11 16 78q0 37 -6 82zM1188 1409l-131 -224l-45 -65l-33 -53q-49 -66 -56 -73q-12 -13 -26 -13q-35 0 -35 27q0 13 23 44q7 10 124 188q48 73 81 141q70 144 88 144q11 0 82 -83
q105 -126 139 -156q64 -57 123 -95q55 -36 55 -64q0 -30 -24 -30q-21 0 -110 64q-110 78 -255 248zM1253 445q0 -101 -6 -152q-4 -34 -14 -48q-14 -19 -69 -49q-52 -27 -71 -62q-11 -20 -11 -58q0 -61 52 -93q41 -26 94 -26q90 0 140 56q33 37 33 84q0 46 -18 77
q-13 23 -73 53q-10 4 -10 22q0 31 43 31q61 0 93 -59q34 -61 34 -135q0 -64 -41 -115q-70 -85 -214 -85q-110 0 -159 62q-43 55 -43 122q0 69 47 133q9 12 84 59q35 22 38 57l4 123h-40h-17q-56 0 -168 -8h-8q-34 0 -34 34q0 38 97 42l496 24q1 0 6 1q24 4 40 -15
q11 -12 11 -28q0 -17 -10 -23q-10 -8 -63 -11zM1161 742l-5 137l-3 76q3 30 44 52q66 35 183 35q65 0 65 -46q0 -13 -10 -24q-12 -13 -79 -10q-51 2 -102 -12q-23 -6 -26 -19q-3 -12 -3 -26q0 -13 4 -41q5 -38 9 -114q127 8 161 8q39 0 58 -7q14 -6 14 -33q0 -33 -60 -36
q-13 -1 -53 -4q-54 -4 -141 -8q-115 -6 -168 -14q-36 -6 -60 -6q-41 0 -41 41q0 20 36 27q35 7 177 24zM1354 1197q21 0 33 -13q12 -15 12 -30q0 -21 -44 -24q-43 -3 -91 -9q-108 -13 -149 -13q-59 0 -59 41q0 15 13 21t110 7q166 20 175 20z" style="" transform="scale(0.05 -0.05) translate(0 -1650)" />
</svg>