<svg xmlns="http://www.w3.org/2000/svg" xmlns:xlink="http://www.w3.org/1999/xlink" height="100" width="100" version="1.1">
    <path d="M802 1342q64 -17 128 -70q52 -44 52 -73q0 -42 -39 -42q-13 0 -44 31q-59 52 -63 55q-9 7 -34 14l-1 -104q0 -60 -49 -60q-24 0 -24 33l-1 135q-50 -9 -102 -60q-46 -45 -69 -45q-35 0 -35 36q0 27 49 71q56 50 92 64q22 8 65 16v65q-1 52 34 52q42 0 41 -63v-55z
M1293 1359q66 -16 114 -43q105 -60 105 -110q0 -18 -13 -31q-12 -11 -27 -11q-13 0 -48 37q-22 23 -92 61q-17 10 -37 16l2 -114q1 -56 -44 -56q-32 0 -32 33l-2 137q-56 -20 -100 -74q-27 -34 -47 -34q-38 0 -38 33q0 49 67 102q64 51 116 59v32q0 45 11 54t26 9
q37 0 38 -39zM615 134l32 374q6 200 6 390q-45 -6 -69 -6q-52 0 -52 34q0 29 45 39q70 16 198 16q87 0 117 -28q27 -26 27 -89q0 -14 -2 -63q-5 -89 -6 -267q-1 -116 -6 -215q-5 -85 -5 -111l1 -106q0 -69 -35 -90q-7 -4 -13 -4q-9 0 -18 10q-12 12 -12 33q0 6 2 24
q6 80 13 447q3 122 8 247q2 44 2 65q0 40 -9 57q-8 18 -45 18q-16 0 -74 -2q0 -161 -3 -364l-32 -400q-5 -47 -23 -72q-17 -22 -30 -22q-21 0 -21 41q0 15 4 44zM1328 729q40 30 49 49t9 73q0 60 -25 74q-22 12 -127 12q-68 0 -194 -20q-21 -3 -38 -3q-34 0 -34 19
q0 71 277 71q139 0 180 -37q37 -34 37 -117q0 -57 -18 -107q-17 -46 -93 -88l16 -86l19 -223l13 -231q5 -92 5 -106q0 -48 -27 -81q-12 -15 -21 -15q-31 0 -31 77q0 2 1 17q2 68 2 87q0 59 -17 318q-5 92 -30 217q-131 -35 -237 -35q-61 0 -61 18q0 19 37 38q17 8 106 20
q62 8 134 25q-37 67 -80 81q-29 9 -68 9q-16 0 -93 -10q-9 -1 -18 -1q-43 0 -43 21q0 26 62 41q73 17 120 17q122 0 188 -124zM1216 485q50 -14 50 -42q0 -25 -51 -25l-56 1l-106 -4q-73 5 -81 7q-17 6 -19 22q-1 9 15 19q21 12 30 13l91 3z" style="" transform="scale(0.055 -0.055) translate(-250 -1600)" />
</svg>