<svg width="1920" height="1080" viewBox="0 0 1920 1080" fill="none" xmlns="http://www.w3.org/2000/svg">
<rect width="1920" height="1080" fill="#FFF7ED"/>
<path d="M752.954 671.381C763.415 669.656 773.631 668.177 783.6 666.944C790 666.205 794.554 665.65 797.262 665.28C806.615 663.924 812.031 663.247 813.508 663.247C818.8 663.247 821.446 665.28 821.446 669.348C821.446 670.827 821.015 672.183 820.154 673.415C819.662 674.155 814.369 675.634 804.277 677.852C804.769 689.438 805.015 696.772 805.015 699.854C805.015 710.577 803.169 717.417 799.477 720.376C793.815 724.936 777.631 728.449 750.923 730.914C751.046 734.119 751.169 736.707 751.292 738.679C751.415 742.5 751.477 745.581 751.477 747.923C754.923 747.307 758.923 746.629 763.477 745.89C767.908 745.15 774.8 744.226 784.154 743.116C790.431 742.5 794.985 741.945 797.815 741.452C807.169 740.097 812.585 739.419 814.062 739.419C819.354 739.419 822 741.514 822 745.705C822 747.06 821.569 748.355 820.708 749.587C820.338 750.327 815.046 751.867 804.831 754.209C804.831 760.002 804.892 764.316 805.015 767.151V773.067C805.015 783.914 803.231 790.816 799.662 793.774C794.369 797.965 779.046 801.416 753.692 804.128C753.815 807.086 753.877 809.366 753.877 810.969C754.123 815.652 754.246 819.72 754.246 823.171C767.292 821.076 778.738 819.412 788.585 818.179C794.862 817.563 799.477 817.008 802.431 816.515C811.785 815.159 817.2 814.481 818.677 814.481C823.969 814.481 826.615 816.577 826.615 820.767C826.615 822.123 826.185 823.417 825.323 824.65C824.954 825.39 819.6 826.869 809.262 829.087C809.754 839.81 810 847.144 810 851.088C810 861.812 808.154 868.652 804.462 871.61C800.031 875.185 789.262 878.081 772.154 880.3C770.677 880.547 766.308 881.04 759.046 881.779C758.677 881.902 757.569 882.087 755.723 882.334C755.969 888.127 756.215 894.844 756.462 902.486C756.585 904.335 756.646 906.184 756.646 908.033C756.646 915.921 756.154 921.344 755.169 924.302C754.431 926.767 752.708 928 750 928C746.308 928 744.092 926.028 743.354 922.084C742.246 915.798 741.015 878.821 739.662 811.153C738.554 754.456 738 719.759 738 707.064C738 680.81 739.908 662.938 743.723 653.448C750.738 635.452 770.862 626.455 804.092 626.455C812.092 626.455 816.092 629.043 816.092 634.22C816.092 638.287 812.646 640.198 805.754 639.951C797.385 639.705 786.738 641.369 773.815 644.943C764.708 647.408 758.615 652.893 755.538 661.398C754.554 664.109 753.692 667.437 752.954 671.381ZM751.477 685.063C751.108 692.458 750.923 699.484 750.923 706.14V711.131V717.602C772.092 715.137 784.769 712.426 788.954 709.467C790.923 708.112 791.908 703.058 791.908 694.307C791.908 690.486 791.538 685.679 790.8 679.886L751.477 685.063ZM752.031 761.235L753.138 790.631C762.369 789.769 771.785 788.228 781.385 786.009C786.431 784.9 789.569 783.113 790.8 780.648C791.538 779.292 791.908 777.073 791.908 773.992C791.908 767.459 791.723 761.481 791.354 756.058L752.031 761.235ZM754.431 836.483C754.554 841.043 754.677 847.822 754.8 856.82C754.8 858.669 754.985 862.674 755.354 868.837C777.138 866.126 790 863.414 793.938 860.702C795.908 859.347 796.892 854.54 796.892 846.281C796.892 841.721 796.523 836.667 795.785 831.121L754.431 836.483ZM870.185 631.447L846 672.86L837.692 684.878L831.6 694.677C825.569 702.812 822.123 707.31 821.262 708.173C819.785 709.776 818.185 710.577 816.462 710.577C812.154 710.577 810 708.913 810 705.585C810 703.983 811.415 701.271 814.246 697.45C815.108 696.217 822.738 684.631 837.138 662.692C843.046 653.694 848.031 645.005 852.092 636.623C860.708 618.874 866.123 610 868.338 610C869.692 610 874.738 615.115 883.477 625.345C896.4 640.876 904.954 650.49 909.138 654.187C917.015 661.213 924.585 667.067 931.846 671.751C938.615 676.188 942 680.133 942 683.584C942 687.281 940.523 689.13 937.569 689.13C934.985 689.13 928.215 685.186 917.262 677.298C903.723 667.684 888.031 652.4 870.185 631.447ZM882.185 809.674C882.185 822.123 881.815 831.491 881.077 837.777C880.585 841.967 879.723 844.926 878.492 846.651C876.769 848.993 872.523 852.013 865.754 855.71C859.354 859.038 854.985 862.859 852.646 867.173C851.292 869.638 850.615 873.213 850.615 877.897C850.615 885.415 853.815 891.147 860.215 895.091C865.262 898.295 871.046 899.898 877.569 899.898C888.646 899.898 897.262 896.447 903.415 889.544C907.477 884.984 909.508 879.807 909.508 874.014C909.508 868.344 908.4 863.599 906.185 859.778C904.585 856.943 900.092 853.677 892.708 849.979C891.477 849.486 890.862 848.13 890.862 845.912C890.862 842.091 893.508 840.18 898.8 840.18C906.308 840.18 912.031 843.816 915.969 851.088C920.154 858.607 922.246 866.927 922.246 876.048C922.246 883.936 919.723 891.023 914.677 897.309C906.062 907.786 892.892 913.024 875.169 913.024C861.631 913.024 851.846 909.203 845.815 901.562C840.523 894.783 837.877 887.264 837.877 879.006C837.877 870.501 840.769 862.305 846.554 854.416C847.662 852.937 852.831 849.301 862.062 843.508C866.369 840.797 868.708 837.284 869.077 832.97L869.815 810.229H862.431H859.292C852.4 810.229 842.062 810.722 828.277 811.708H826.8C822.615 811.708 820.523 809.613 820.523 805.422C820.523 800.738 826.492 798.15 838.431 797.657L930 793.22C930.123 793.22 930.492 793.158 931.108 793.035C934.062 792.542 936.523 793.466 938.492 795.808C939.846 797.287 940.523 799.013 940.523 800.985C940.523 803.08 939.908 804.498 938.677 805.237C937.446 806.223 933.569 806.901 927.046 807.271L882.185 809.674ZM865.2 754.764L864.277 729.435L863.723 715.384C864.092 711.686 866.8 708.481 871.846 705.77C879.969 701.456 891.231 699.299 905.631 699.299C913.631 699.299 917.631 702.134 917.631 707.803C917.631 709.406 917.015 710.885 915.785 712.241C914.308 713.843 909.446 714.459 901.2 714.09C894.923 713.843 888.646 714.583 882.369 716.308C879.538 717.048 877.938 718.219 877.569 719.821C877.2 721.3 877.015 722.902 877.015 724.628C877.015 726.23 877.262 728.757 877.754 732.208C878.369 736.892 878.923 743.917 879.415 753.285C895.046 752.299 904.954 751.806 909.138 751.806C913.938 751.806 917.508 752.237 919.846 753.1C921.569 753.84 922.431 755.873 922.431 759.201C922.431 763.269 918.738 765.487 911.354 765.857C909.754 765.98 906.492 766.227 901.569 766.597C894.923 767.09 886.246 767.583 875.538 768.076C861.385 768.815 851.046 769.678 844.523 770.664C840.092 771.403 836.4 771.773 833.446 771.773C828.4 771.773 825.877 769.247 825.877 764.193C825.877 761.728 828.092 760.064 832.523 759.201C836.831 758.338 847.723 756.859 865.2 754.764ZM900.831 670.642C903.415 670.642 905.446 671.443 906.923 673.045C908.4 674.894 909.138 676.743 909.138 678.592C909.138 681.18 906.431 682.659 901.015 683.029C895.723 683.399 890.123 683.953 884.215 684.693C870.923 686.295 861.754 687.097 856.708 687.097C849.446 687.097 845.815 684.57 845.815 679.516C845.815 677.667 846.615 676.373 848.215 675.634C849.815 674.894 856.585 674.463 868.523 674.34C888.954 671.874 899.723 670.642 900.831 670.642Z" fill="black"/>
<path d="M1053.74 646.968C1061.75 649.078 1069.76 653.421 1077.76 659.999C1084.27 665.46 1087.52 669.99 1087.52 673.59C1087.52 678.802 1085.08 681.409 1080.2 681.409C1078.58 681.409 1075.83 679.485 1071.95 675.637C1064.56 669.184 1060.62 665.771 1060.12 665.398C1059 664.529 1056.87 663.661 1053.74 662.792L1053.55 682.153C1053.55 689.6 1050.49 693.323 1044.36 693.323C1041.35 693.323 1039.85 691.275 1039.85 687.18L1039.66 662.047C1033.41 663.164 1027.03 666.888 1020.52 673.217C1014.76 678.802 1010.45 681.595 1007.57 681.595C1003.19 681.595 1001 679.361 1001 674.893C1001 671.542 1004.07 667.136 1010.2 661.675C1017.2 655.469 1022.96 651.498 1027.46 649.76C1030.22 648.767 1034.28 647.774 1039.66 646.781V634.681C1039.54 628.227 1041.67 625 1046.05 625C1051.3 625 1053.87 628.909 1053.74 636.729V646.968ZM1145.9 643.803C1154.15 645.789 1161.29 648.457 1167.29 651.808C1180.43 659.255 1187 666.081 1187 672.286C1187 674.52 1186.19 676.444 1184.56 678.058C1183.06 679.423 1181.37 680.105 1179.49 680.105C1177.87 680.105 1174.86 677.809 1170.48 673.217C1167.73 670.363 1161.97 666.577 1153.22 661.861C1151.09 660.62 1148.77 659.627 1146.27 658.882L1146.65 680.105C1146.77 687.056 1144.02 690.531 1138.39 690.531C1134.38 690.531 1132.38 688.483 1132.38 684.387L1132.01 658.882C1125 661.365 1118.74 665.957 1113.24 672.659C1109.86 676.878 1106.92 678.988 1104.42 678.988C1099.66 678.988 1097.28 676.941 1097.28 672.845C1097.28 666.763 1101.48 660.434 1109.86 653.856C1117.87 647.526 1125.13 643.865 1131.63 642.872V636.915C1131.63 631.33 1132.32 627.979 1133.7 626.862C1135.07 625.745 1136.7 625.186 1138.58 625.186C1143.21 625.186 1145.58 627.606 1145.71 632.447L1145.9 643.803ZM1018.64 871.857L1024.65 802.231C1025.4 777.409 1025.77 753.207 1025.77 729.626C1020.14 730.37 1015.83 730.743 1012.82 730.743C1006.32 730.743 1003.06 728.633 1003.06 724.413C1003.06 720.814 1005.88 718.394 1011.51 717.153C1020.27 715.167 1032.66 714.174 1048.67 714.174C1059.56 714.174 1066.88 715.911 1070.63 719.387C1074.01 722.613 1075.7 728.136 1075.7 735.955C1075.7 737.693 1075.58 741.602 1075.32 747.684C1074.7 758.73 1074.32 775.299 1074.2 797.39C1074.07 811.787 1073.7 825.129 1073.07 837.416C1072.45 847.966 1072.13 854.854 1072.13 858.081L1072.32 877.814C1072.32 886.378 1070.13 891.963 1065.75 894.569C1064.88 895.066 1064.06 895.314 1063.31 895.314C1062.19 895.314 1061.06 894.694 1059.93 893.452C1058.43 891.963 1057.68 889.915 1057.68 887.309C1057.68 886.564 1057.81 885.075 1058.06 882.841C1058.81 872.912 1059.62 845.173 1060.5 799.624C1060.87 784.483 1061.37 769.155 1062 753.641C1062.25 748.18 1062.37 744.147 1062.37 741.54C1062.37 736.576 1061.81 733.039 1060.69 730.929C1059.68 728.695 1056.87 727.578 1052.24 727.578C1050.24 727.578 1045.61 727.702 1038.35 727.95C1038.35 747.932 1038.16 770.52 1037.79 795.715L1031.78 870.182C1031.16 876.015 1029.72 880.483 1027.46 883.586C1025.34 886.316 1023.46 887.681 1021.83 887.681C1019.21 887.681 1017.89 885.137 1017.89 880.048C1017.89 878.187 1018.14 875.456 1018.64 871.857ZM1152.47 761.088C1157.47 757.365 1160.54 754.324 1161.66 751.966C1162.79 749.608 1163.35 745.078 1163.35 738.376C1163.35 730.929 1161.79 726.337 1158.66 724.599C1155.91 723.11 1147.96 722.365 1134.82 722.365C1126.31 722.365 1114.18 723.606 1098.41 726.089C1095.78 726.461 1093.41 726.647 1091.28 726.647C1087.02 726.647 1084.9 725.468 1084.9 723.11C1084.9 714.298 1102.23 709.892 1136.89 709.892C1154.28 709.892 1165.54 712.188 1170.67 716.78C1175.3 721 1177.62 728.26 1177.62 738.562C1177.62 745.636 1176.49 752.276 1174.24 758.482C1172.11 764.191 1166.29 769.652 1156.78 774.864L1159.79 790.875L1163.35 832.39L1165.79 875.394C1166.42 886.813 1166.73 893.39 1166.73 895.128C1166.73 901.085 1165.04 906.112 1161.66 910.207C1160.16 912.069 1158.85 913 1157.72 913C1153.84 913 1151.9 908.222 1151.9 898.665C1151.9 898.417 1151.96 897.362 1152.09 895.5C1152.34 887.061 1152.47 881.662 1152.47 879.304C1152.47 871.981 1151.4 852.248 1149.27 820.103C1148.65 808.685 1146.77 795.218 1143.64 779.705C1127.25 784.048 1112.42 786.22 1099.16 786.22C1091.53 786.22 1087.71 785.103 1087.71 782.869C1087.71 780.511 1090.03 778.153 1094.66 775.795C1096.78 774.802 1103.42 773.561 1114.55 772.072C1122.31 771.079 1130.69 769.527 1139.7 767.418C1135.07 759.102 1130.07 754.076 1124.69 752.338C1121.06 751.221 1116.8 750.663 1111.92 750.663C1109.92 750.663 1104.1 751.283 1094.47 752.524C1093.34 752.648 1092.22 752.71 1091.09 752.71C1085.71 752.71 1083.02 751.407 1083.02 748.801C1083.02 745.574 1086.9 743.03 1094.66 741.168C1103.79 739.058 1111.3 738.003 1117.18 738.003C1132.45 738.003 1144.21 745.698 1152.47 761.088ZM1131.44 806.513C1137.7 808.25 1140.83 810.856 1140.83 814.332C1140.83 817.434 1137.64 818.986 1131.26 818.986L1120.75 818.8L1100.85 819.544C1091.72 818.924 1086.65 818.489 1085.65 818.241C1083.52 817.496 1082.33 816.131 1082.08 814.145C1081.96 813.028 1082.9 811.849 1084.9 810.608C1087.52 809.119 1089.4 808.312 1090.53 808.188L1107.61 807.63L1131.44 806.513Z" fill="black"/>
<rect x="48" y="48" width="1824" height="984" stroke="#FF0000" stroke-width="4"/>
<rect x="58" y="58" width="1804" height="964" stroke="#FF0000" stroke-width="8"/>
<path d="M1251 58L1252.01 1022" stroke="#FF0000" stroke-width="4"/>
<path d="M1453.02 58L1454.02 1022" stroke="#FF0000" stroke-width="4"/>
<path d="M1655.03 58L1656.04 1022" stroke="#FF0000" stroke-width="4"/>
<path d="M1857.05 58L1858.05 1022" stroke="#FF0000" stroke-width="4"/>
<path d="M58 60L59.0078 1024" stroke="#FF0000" stroke-width="4"/>
<path d="M260.016 60L261.023 1024" stroke="#FF0000" stroke-width="4"/>
<path d="M462.031 60L463.039 1024" stroke="#FF0000" stroke-width="4"/>
<path d="M664.047 60L665.055 1024" stroke="#FF0000" stroke-width="4"/>
<path d="M760.419 163H784.663V183.59L767.412 217.08L751.872 217.159L760.419 183.59V163Z" fill="black"/>
<path d="M912.571 205.814V219.023H817.463V205.814H912.571Z" fill="black"/>
<path d="M1034.58 163H1058.83V183.59L1041.57 217.08L1026.03 217.159L1034.58 183.59V163Z" fill="black"/>
<path d="M1186.73 205.814V219.023H1091.62V205.814H1186.73Z" fill="black"/>
<path d="M748.842 242.133L809.915 372.907H795.152L734 242.133H748.842Z" fill="black"/>
<path d="M886.538 242.133H901.303L840.228 372.907H825.386L886.538 242.133Z" fill="black"/>
<path d="M1007.08 319.292H1089.21V332.423H1007.08V319.292ZM1007.08 282.693H1089.21V295.826H1007.08V282.693Z" fill="black"/>
<path d="M1098.46 319.292H1180.59V332.423H1098.46V319.292ZM1098.46 282.693H1180.59V295.826H1098.46V282.693Z" fill="black"/>
<path d="M795.152 409.226H809.915L748.842 540H734L795.152 409.226Z" fill="black"/>
<path d="M840.228 409.226L901.303 540H886.538L825.386 409.226H840.228Z" fill="black"/>
<path d="M1043.98 396.559H1076.93V407.672H1058.28V527.333H1076.93V538.446H1043.98V396.559Z" fill="black"/>
<path d="M1147.57 396.559V538.446H1114.62V527.333H1133.27V407.672H1114.62V396.559H1147.57Z" fill="black"/>
<rect x="46" y="46" width="72" height="72" fill="#FFF7ED"/>
<rect x="46" y="46" width="32" height="32" fill="#FF0000"/>
<rect x="54" y="54" width="16" height="16" fill="#FFF7ED"/>
<rect x="86" y="46" width="32" height="32" fill="#FF0000"/>
<rect x="94" y="54" width="24" height="16" fill="#FFF7ED"/>
<rect x="110" y="46" width="8" height="8" fill="white"/>
<rect width="32" height="32" transform="matrix(4.37114e-08 1 1 -4.37114e-08 46 86)" fill="#FF0000"/>
<rect width="24" height="16" transform="matrix(4.37114e-08 1 1 -4.37114e-08 54 94)" fill="#FFF7ED"/>
<rect width="8" height="8" transform="matrix(4.37114e-08 1 1 -4.37114e-08 46 110)" fill="#FFF7ED"/>
<rect x="118" y="54" width="8" height="24" fill="#FF0000"/>
<rect x="78" y="118" width="8" height="24" transform="rotate(90 78 118)" fill="#FF0000"/>
<rect x="58" y="78" width="8" height="8" fill="#FF0000"/>
<rect x="102" y="46" width="8" height="16" fill="#FF0000"/>
<rect x="62" y="102" width="8" height="16" transform="rotate(90 62 102)" fill="#FF0000"/>
<rect x="46" y="1034" width="72" height="72" transform="rotate(-90 46 1034)" fill="#FFF7ED"/>
<rect x="46" y="1034" width="32" height="32" transform="rotate(-90 46 1034)" fill="#FF0000"/>
<rect x="54" y="1026" width="16" height="16" transform="rotate(-90 54 1026)" fill="#FFF7ED"/>
<rect x="46" y="994" width="32" height="32" transform="rotate(-90 46 994)" fill="#FF0000"/>
<rect x="54" y="986" width="24" height="16" transform="rotate(-90 54 986)" fill="#FFF7ED"/>
<rect x="46" y="970" width="8" height="8" transform="rotate(-90 46 970)" fill="white"/>
<rect width="32" height="32" transform="matrix(1 -3.17865e-08 -3.17865e-08 -1 86 1034)" fill="#FF0000"/>
<rect width="24" height="16" transform="matrix(1 -3.17865e-08 -3.17865e-08 -1 94 1026)" fill="#FFF7ED"/>
<rect width="8" height="8" transform="matrix(1 -3.17865e-08 -3.17865e-08 -1 110 1034)" fill="#FFF7ED"/>
<rect x="54" y="962" width="8" height="24" transform="rotate(-90 54 962)" fill="#FF0000"/>
<rect x="118" y="1002" width="8" height="24" fill="#FF0000"/>
<rect x="78" y="1022" width="8" height="8" transform="rotate(-90 78 1022)" fill="#FF0000"/>
<rect x="46" y="978" width="8" height="16" transform="rotate(-90 46 978)" fill="#FF0000"/>
<rect x="102" y="1018" width="8" height="16" fill="#FF0000"/>
<rect x="1874" y="1034" width="72" height="72" transform="rotate(-180 1874 1034)" fill="#FFF7ED"/>
<rect x="1874" y="1034" width="32" height="32" transform="rotate(-180 1874 1034)" fill="#FF0000"/>
<rect x="1866" y="1026" width="16" height="16" transform="rotate(-180 1866 1026)" fill="#FFF7ED"/>
<rect x="1834" y="1034" width="32" height="32" transform="rotate(-180 1834 1034)" fill="#FF0000"/>
<rect x="1826" y="1026" width="24" height="16" transform="rotate(-180 1826 1026)" fill="#FFF7ED"/>
<rect x="1810" y="1034" width="8" height="8" transform="rotate(-180 1810 1034)" fill="white"/>
<rect width="32" height="32" transform="matrix(4.37114e-08 -1 -1 -4.37114e-08 1874 994)" fill="#FF0000"/>
<rect width="24" height="16" transform="matrix(4.37114e-08 -1 -1 -4.37114e-08 1866 986)" fill="#FFF7ED"/>
<rect width="8" height="8" transform="matrix(4.37114e-08 -1 -1 -4.37114e-08 1874 970)" fill="#FFF7ED"/>
<rect x="1802" y="1026" width="8" height="24" transform="rotate(-180 1802 1026)" fill="#FF0000"/>
<rect x="1842" y="962" width="8" height="24" transform="rotate(-90 1842 962)" fill="#FF0000"/>
<rect x="1862" y="1002" width="8" height="8" transform="rotate(-180 1862 1002)" fill="#FF0000"/>
<rect x="1818" y="1034" width="8" height="16" transform="rotate(-180 1818 1034)" fill="#FF0000"/>
<rect x="1858" y="978" width="8" height="16" transform="rotate(-90 1858 978)" fill="#FF0000"/>
<rect x="1874" y="46" width="72" height="72" transform="rotate(90 1874 46)" fill="#FFF7ED"/>
<rect x="1874" y="46" width="32" height="32" transform="rotate(90 1874 46)" fill="#FF0000"/>
<rect x="1866" y="54" width="16" height="16" transform="rotate(90 1866 54)" fill="#FFF7ED"/>
<rect x="1874" y="86" width="32" height="32" transform="rotate(90 1874 86)" fill="#FF0000"/>
<rect x="1866" y="94" width="24" height="16" transform="rotate(90 1866 94)" fill="#FFF7ED"/>
<rect x="1874" y="110" width="8" height="8" transform="rotate(90 1874 110)" fill="white"/>
<rect width="32" height="32" transform="matrix(-1 0 0 1 1834 46)" fill="#FF0000"/>
<rect width="24" height="16" transform="matrix(-1 0 0 1 1826 54)" fill="#FFF7ED"/>
<rect width="8" height="8" transform="matrix(-1 0 0 1 1810 46)" fill="#FFF7ED"/>
<rect x="1866" y="118" width="8" height="24" transform="rotate(90 1866 118)" fill="#FF0000"/>
<rect x="1802" y="78" width="8" height="24" transform="rotate(-180 1802 78)" fill="#FF0000"/>
<rect x="1842" y="58" width="8" height="8" transform="rotate(90 1842 58)" fill="#FF0000"/>
<rect x="1874" y="102" width="8" height="16" transform="rotate(90 1874 102)" fill="#FF0000"/>
<rect x="1818" y="62" width="8" height="16" transform="rotate(-180 1818 62)" fill="#FF0000"/>
<path d="M1589.06 308.216C1588.98 305.144 1588.68 302.84 1588.17 301.304C1587.66 299.853 1586.67 298.829 1585.22 298.232V300.28C1585.22 301.133 1584.33 301.816 1582.54 302.328C1580.74 302.925 1578.95 303.224 1577.16 303.224C1575.79 303.224 1575.11 302.584 1575.11 301.304V273.912H1570.38V300.28C1570.38 301.133 1569.48 301.816 1567.69 302.328C1565.9 302.925 1564.15 303.224 1562.44 303.224C1561.07 303.224 1560.39 302.584 1560.39 301.304V273.912H1555.66V304.248C1555.66 305.187 1554.63 305.912 1552.58 306.424C1550.62 307.021 1548.66 307.32 1546.7 307.32C1545.25 307.32 1544.52 306.637 1544.52 305.272C1544.52 304.675 1544.56 303.011 1544.65 300.28C1544.73 297.635 1544.82 294.221 1544.9 290.04C1544.99 285.773 1545.03 281.037 1545.03 275.832C1542.73 282.403 1539.78 288.163 1536.2 293.112C1532.62 298.061 1528.43 302.413 1523.66 306.168C1523.06 306.168 1522.59 305.955 1522.25 305.528C1521.91 305.187 1521.78 304.76 1521.86 304.248C1525.11 300.664 1527.71 296.909 1529.67 292.984C1531.72 289.059 1533.26 284.664 1534.28 279.8C1535.39 274.936 1536.16 269.304 1536.58 262.904C1537.01 256.419 1537.22 248.824 1537.22 240.12C1537.22 232.781 1537.18 227.192 1537.1 223.352C1537.1 219.427 1537.01 216.611 1536.84 214.904C1536.75 213.112 1536.5 211.789 1536.07 210.936C1535.9 210.595 1535.94 210.296 1536.2 210.04C1536.37 209.699 1536.67 209.613 1537.1 209.784C1538.03 210.04 1539.4 210.552 1541.19 211.32C1542.98 212.003 1544.82 212.771 1546.7 213.624C1548.66 214.392 1550.28 215.117 1551.56 215.8H1586.38C1587.31 215.8 1587.95 215.459 1588.3 214.776C1588.55 214.349 1588.89 213.752 1589.32 212.984C1589.83 212.131 1590.22 211.491 1590.47 211.064C1590.9 210.381 1591.37 210.04 1591.88 210.04C1592.14 210.04 1592.52 210.125 1593.03 210.296C1594.14 210.637 1595.46 211.149 1597 211.832C1598.54 212.515 1600.07 213.24 1601.61 214.008C1603.14 214.691 1604.38 215.331 1605.32 215.928C1606.26 216.44 1606.73 217.208 1606.73 218.232C1606.73 219.171 1606.17 219.896 1605.06 220.408C1604.47 220.664 1603.95 220.92 1603.53 221.176C1602.5 221.944 1601.99 223.395 1601.99 225.528C1601.99 226.808 1602.03 228.429 1602.12 230.392C1602.21 232.269 1602.29 234.061 1602.38 235.768C1602.46 237.389 1602.5 238.456 1602.5 238.968C1602.5 239.821 1601.91 240.547 1600.71 241.144C1599.6 241.741 1598.19 242.211 1596.49 242.552C1594.78 242.893 1593.07 243.064 1591.37 243.064C1589.32 243.064 1588.3 242.125 1588.3 240.248V238.456H1550.15V240.376C1550.15 241.656 1550.11 242.979 1550.02 244.344C1550.02 245.624 1549.98 246.861 1549.9 248.056C1551.18 248.568 1552.46 249.123 1553.74 249.72C1555.1 250.232 1556.21 250.701 1557.06 251.128H1588.68C1589.53 251.128 1590.13 250.829 1590.47 250.232C1590.64 249.805 1590.94 249.251 1591.37 248.568C1591.79 247.8 1592.14 247.245 1592.39 246.904C1592.82 246.136 1593.54 245.923 1594.57 246.264C1595.51 246.52 1596.66 246.947 1598.02 247.544C1599.47 248.141 1600.88 248.781 1602.25 249.464C1603.7 250.147 1604.85 250.744 1605.7 251.256C1606.56 251.683 1606.98 252.323 1606.98 253.176C1606.98 254.115 1606.47 254.797 1605.45 255.224C1604.94 255.309 1604.47 255.523 1604.04 255.864C1603.1 256.547 1602.63 257.827 1602.63 259.704V269.176C1602.63 272.589 1602.63 276.131 1602.63 279.8C1602.72 283.384 1602.8 286.627 1602.89 289.528C1602.97 292.344 1603.02 294.264 1603.02 295.288C1603.02 298.701 1602.08 301.603 1600.2 303.992C1598.32 306.381 1594.61 307.789 1589.06 308.216ZM1508.81 308.216C1507.02 308.216 1506.12 307.32 1506.12 305.528C1506.12 305.187 1506.16 303.821 1506.25 301.432C1506.33 299.043 1506.42 296.184 1506.5 292.856C1506.67 289.443 1506.8 286.072 1506.89 282.744C1506.97 279.416 1507.02 276.643 1507.02 274.424V270.2C1506.85 270.371 1506.67 270.797 1506.5 271.48C1505.31 275.235 1503.82 278.989 1502.02 282.744C1500.32 286.499 1498.48 289.997 1496.52 293.24C1494.56 296.397 1492.64 299.128 1490.76 301.432H1490.25C1489.31 301.432 1488.75 300.963 1488.58 300.024C1489.35 298.147 1490.08 295.8 1490.76 292.984C1491.44 290.083 1492.04 287.053 1492.55 283.896C1493.06 280.653 1493.45 277.539 1493.7 274.552C1494.05 271.565 1494.26 269.048 1494.34 267V264.568C1494.17 263.971 1494.26 263.587 1494.6 263.416C1494.69 263.16 1495.07 263.117 1495.75 263.288C1497.03 263.544 1498.78 263.971 1501 264.568C1503.22 265.08 1505.22 265.635 1507.02 266.232V253.816C1505.39 254.413 1503.9 254.968 1502.54 255.48C1501.17 255.907 1500.15 256.291 1499.46 256.632C1498.78 256.973 1498.31 257.272 1498.06 257.528C1497.89 257.699 1497.84 258.083 1497.93 258.68V258.936C1497.93 259.619 1497.54 260.045 1496.78 260.216C1495.92 260.557 1495.41 260.429 1495.24 259.832C1494.9 258.723 1494.43 257.357 1493.83 255.736C1493.23 254.029 1492.64 252.28 1492.04 250.488C1491.53 248.696 1491.14 247.203 1490.89 246.008C1490.63 245.411 1490.63 244.984 1490.89 244.728C1490.97 244.557 1491.4 244.472 1492.17 244.472H1505.61C1507.4 241.741 1509.11 238.371 1510.73 234.36C1512.43 230.264 1513.93 226.083 1515.21 221.816C1516.57 217.549 1517.51 213.837 1518.02 210.68C1518.11 210.253 1518.15 209.869 1518.15 209.528C1518.24 209.101 1518.28 208.717 1518.28 208.376C1518.45 207.693 1518.66 207.309 1518.92 207.224C1519.18 207.053 1519.65 207.053 1520.33 207.224C1520.58 207.309 1521.44 207.651 1522.89 208.248C1524.34 208.76 1525.96 209.4 1527.75 210.168C1529.54 210.851 1531.12 211.491 1532.49 212.088C1533.85 212.6 1534.66 212.941 1534.92 213.112C1535.69 213.453 1535.9 214.136 1535.56 215.16C1535.22 216.013 1534.66 216.397 1533.9 216.312C1533.81 216.312 1533.68 216.312 1533.51 216.312C1533.43 216.227 1533.34 216.184 1533.26 216.184C1532.57 216.184 1531.81 216.824 1530.95 218.104C1529.16 220.749 1527.03 223.736 1524.55 227.064C1522.08 230.307 1519.52 233.464 1516.87 236.536C1514.31 239.608 1511.84 242.253 1509.45 244.472H1522.5C1522.08 243.021 1521.52 241.699 1520.84 240.504C1520.16 239.309 1519.3 238.285 1518.28 237.432V236.92C1518.28 235.981 1518.75 235.427 1519.69 235.256C1524.21 236.28 1527.97 237.987 1530.95 240.376C1534.02 242.765 1535.56 245.965 1535.56 249.976C1535.56 252.621 1534.88 254.627 1533.51 255.992C1532.15 257.272 1530.57 257.997 1528.78 258.168C1527.41 258.253 1526.26 258.04 1525.32 257.528C1524.38 256.931 1523.87 255.949 1523.78 254.584C1523.78 253.475 1523.74 252.408 1523.66 251.384C1523.57 250.36 1523.44 249.336 1523.27 248.312L1519.05 249.72V274.424C1519.05 277.155 1519.09 280.141 1519.18 283.384C1519.26 286.627 1519.3 289.784 1519.3 292.856C1519.39 295.843 1519.47 298.36 1519.56 300.408C1519.65 302.541 1519.69 303.864 1519.69 304.376C1519.69 305.144 1519.09 305.784 1517.9 306.296C1516.79 306.893 1515.38 307.363 1513.67 307.704C1512.05 308.045 1510.43 308.216 1508.81 308.216ZM1588.3 219.64L1550.15 219.768V234.488H1588.3V219.64ZM1504.58 234.872C1504.24 234.957 1503.9 235.043 1503.56 235.128C1503.3 235.128 1503.05 235.128 1502.79 235.128C1501.43 235.128 1500.27 234.744 1499.34 233.976C1498.48 233.208 1497.97 232.099 1497.8 230.648C1497.46 226.979 1496.9 223.821 1496.14 221.176C1495.45 218.445 1494 216.141 1491.78 214.264L1491.66 213.752C1491.66 212.899 1492.13 212.344 1493.06 212.088C1494.77 212.429 1496.43 212.899 1498.06 213.496C1499.68 214.093 1501.17 214.733 1502.54 215.416C1503.39 212.515 1504.16 209.229 1504.84 205.56C1505.52 201.805 1505.91 198.605 1505.99 195.96C1505.99 195.789 1505.99 195.491 1505.99 195.064C1506.08 194.381 1506.08 193.869 1505.99 193.528C1505.99 193.101 1506.16 192.76 1506.5 192.504C1506.76 192.248 1507.14 192.205 1507.66 192.376C1508.68 192.632 1510.3 193.144 1512.52 193.912C1514.74 194.68 1516.96 195.448 1519.18 196.216C1521.48 196.984 1523.14 197.581 1524.17 198.008C1524.59 198.264 1524.81 198.691 1524.81 199.288C1524.81 200.653 1524.3 201.336 1523.27 201.336C1523.02 201.251 1522.63 201.208 1522.12 201.208C1521.35 201.208 1520.67 201.635 1520.07 202.488C1518.28 205.133 1516.06 207.864 1513.42 210.68C1510.77 213.411 1508.38 215.757 1506.25 217.72C1507.78 218.915 1508.98 220.28 1509.83 221.816C1510.77 223.267 1511.24 224.931 1511.24 226.808C1511.24 229.112 1510.6 230.947 1509.32 232.312C1508.04 233.592 1506.46 234.445 1504.58 234.872ZM1533.26 205.432L1531.98 200.44C1535.22 200.781 1537.99 200.995 1540.3 201.08C1542.69 201.08 1543.88 201.08 1543.88 201.08H1587.27C1588.64 201.08 1589.62 200.653 1590.22 199.8C1590.73 199.117 1591.5 198.008 1592.52 196.472C1593.63 194.936 1594.4 193.869 1594.82 193.272C1595.34 192.589 1595.89 192.248 1596.49 192.248C1596.74 192.248 1597.13 192.376 1597.64 192.632C1598.66 193.229 1599.9 194.125 1601.35 195.32C1602.8 196.515 1604.21 197.752 1605.58 199.032C1606.94 200.227 1607.92 201.208 1608.52 201.976C1608.95 202.573 1609.16 203.085 1609.16 203.512C1609.16 204.536 1608.69 205.048 1607.75 205.048H1544.01C1544.01 205.048 1542.9 205.091 1540.68 205.176C1538.46 205.176 1535.99 205.261 1533.26 205.432ZM1526.34 286.584C1524.98 286.584 1523.87 286.243 1523.02 285.56C1522.25 284.792 1521.91 283.683 1521.99 282.232C1522.08 281.379 1522.12 280.483 1522.12 279.544C1522.12 278.605 1522.12 277.667 1522.12 276.728C1522.12 274.253 1521.95 271.779 1521.61 269.304C1521.35 266.829 1520.75 264.653 1519.82 262.776C1519.99 261.581 1520.58 261.112 1521.61 261.368C1525.62 263.501 1528.69 265.976 1530.82 268.792C1532.96 271.608 1534.02 274.893 1534.02 278.648C1534.02 281.123 1533.21 283.085 1531.59 284.536C1529.97 285.901 1528.22 286.584 1526.34 286.584ZM1585.22 273.912V294.776H1587.66C1588.85 294.776 1589.62 294.605 1589.96 294.264C1590.39 293.923 1590.6 293.24 1590.6 292.216V273.912H1585.22ZM1590.6 254.968H1585.22V269.944H1590.6V254.968ZM1560.39 254.968H1555.66V269.944H1560.39V254.968ZM1575.11 254.968H1570.38V269.944H1575.11V254.968ZM1511.11 493.216C1508.98 493.216 1507.91 492.235 1507.91 490.272C1507.91 489.931 1507.95 488.565 1508.04 486.176C1508.13 483.872 1508.21 480.928 1508.3 477.344C1508.47 473.76 1508.59 469.92 1508.68 465.824C1508.85 461.643 1508.94 457.589 1508.94 453.664C1506.03 458.357 1503.01 462.496 1499.85 466.08C1496.78 469.579 1493.7 472.736 1490.63 475.552C1489.27 475.552 1488.58 474.997 1488.58 473.888C1491.57 469.792 1494.3 464.8 1496.78 458.912C1499.34 453.024 1501.51 446.667 1503.3 439.84C1505.18 432.928 1506.59 425.931 1507.53 418.848C1507.1 418.848 1506.67 418.848 1506.25 418.848C1505.91 418.848 1505.57 418.848 1505.22 418.848C1503.94 418.763 1503.22 418.763 1503.05 418.848C1503.05 418.848 1501.94 418.891 1499.72 418.976C1497.59 418.976 1495.03 419.061 1492.04 419.232L1490.5 414.24C1494.43 414.581 1497.5 414.795 1499.72 414.88C1501.94 414.88 1503.05 414.88 1503.05 414.88H1508.94V396.064C1505.78 396.405 1502.66 396.747 1499.59 397.088C1496.52 397.344 1493.62 397.557 1490.89 397.728C1490.38 397.216 1490.12 396.704 1490.12 396.192C1490.12 395.765 1490.25 395.424 1490.5 395.168C1493.83 394.144 1497.33 392.907 1501 391.456C1504.67 390.005 1508.17 388.384 1511.5 386.592C1514.91 384.715 1517.85 382.795 1520.33 380.832C1520.84 380.405 1521.35 379.979 1521.86 379.552C1522.38 379.04 1522.8 378.571 1523.14 378.144C1523.66 377.632 1524.04 377.376 1524.3 377.376C1524.72 377.376 1525.15 377.547 1525.58 377.888C1526.6 378.571 1528.01 379.68 1529.8 381.216C1531.68 382.752 1533.51 384.331 1535.3 385.952C1537.1 387.488 1538.42 388.725 1539.27 389.664C1539.53 389.92 1539.66 390.261 1539.66 390.688C1539.66 391.115 1539.53 391.541 1539.27 391.968C1538.85 392.565 1538.29 392.736 1537.61 392.48C1536.58 392.224 1535.6 392.096 1534.66 392.096C1533.81 392.096 1532.74 392.224 1531.46 392.48C1530.1 392.821 1528.56 393.12 1526.86 393.376C1525.23 393.632 1523.57 393.888 1521.86 394.144V414.88H1522.38C1522.97 414.88 1523.4 414.837 1523.66 414.752C1524 414.667 1524.3 414.411 1524.55 413.984C1524.98 413.301 1525.62 412.32 1526.47 411.04C1527.33 409.675 1528.01 408.651 1528.52 407.968C1529.03 407.371 1529.59 407.072 1530.18 407.072C1530.7 407.072 1531.12 407.243 1531.46 407.584C1532.74 408.437 1534.32 409.675 1536.2 411.296C1538.08 412.917 1539.53 414.325 1540.55 415.52C1540.98 416.117 1541.19 416.672 1541.19 417.184C1541.19 418.293 1540.72 418.848 1539.78 418.848H1521.86V429.856C1527.75 430.965 1532.4 433.099 1535.82 436.256C1539.23 439.328 1540.94 443.125 1540.94 447.648C1540.94 450.549 1539.91 452.768 1537.86 454.304C1535.9 455.755 1533.9 456.48 1531.85 456.48C1530.48 456.48 1529.29 456.139 1528.26 455.456C1527.33 454.688 1526.81 453.621 1526.73 452.256C1526.64 447.989 1526.22 444.32 1525.45 441.248C1524.77 438.176 1523.57 435.701 1521.86 433.824V450.08C1521.86 453.152 1521.91 456.779 1521.99 460.96C1522.08 465.141 1522.12 469.28 1522.12 473.376C1522.21 477.387 1522.29 480.843 1522.38 483.744C1522.46 486.645 1522.5 488.352 1522.5 488.864C1522.5 489.717 1521.91 490.443 1520.71 491.04C1519.6 491.723 1518.15 492.235 1516.36 492.576C1514.65 493.003 1512.9 493.216 1511.11 493.216ZM1545.29 427.168C1543.15 427.168 1542.09 426.187 1542.09 424.224C1542.09 423.456 1542.13 421.835 1542.22 419.36C1542.39 416.8 1542.51 413.685 1542.6 410.016C1542.77 406.261 1542.86 402.251 1542.86 397.984C1542.86 393.291 1542.77 389.621 1542.6 386.976C1542.43 384.331 1542.17 382.539 1541.83 381.6C1541.58 381.088 1541.62 380.661 1541.96 380.32C1542.39 380.064 1542.81 379.979 1543.24 380.064C1544.52 380.405 1546.14 380.96 1548.1 381.728C1550.07 382.496 1552.03 383.307 1553.99 384.16C1556.04 384.928 1557.66 385.653 1558.86 386.336H1582.28C1583.22 386.336 1583.9 385.952 1584.33 385.184C1584.58 384.757 1584.93 384.117 1585.35 383.264C1585.86 382.411 1586.29 381.728 1586.63 381.216C1587.06 380.533 1587.53 380.192 1588.04 380.192C1588.3 380.192 1588.68 380.277 1589.19 380.448C1590.3 380.789 1591.67 381.344 1593.29 382.112C1594.91 382.795 1596.53 383.52 1598.15 384.288C1599.77 385.056 1601.1 385.739 1602.12 386.336C1603.06 386.848 1603.53 387.659 1603.53 388.768C1603.53 389.792 1602.93 390.56 1601.74 391.072C1601.14 391.328 1600.63 391.584 1600.2 391.84C1599.09 392.608 1598.54 394.101 1598.54 396.32C1598.54 398.539 1598.58 400.971 1598.66 403.616C1598.75 406.261 1598.83 408.864 1598.92 411.424C1599.09 413.899 1599.22 415.989 1599.3 417.696C1599.39 419.403 1599.43 420.384 1599.43 420.64C1599.43 421.579 1598.79 422.389 1597.51 423.072C1596.23 423.755 1594.65 424.309 1592.78 424.736C1590.9 425.077 1589.02 425.248 1587.14 425.248C1584.93 425.248 1583.82 424.224 1583.82 422.176V419.104H1557.45V422.688C1557.45 423.627 1556.81 424.437 1555.53 425.12C1554.25 425.803 1552.67 426.315 1550.79 426.656C1549 426.997 1547.17 427.168 1545.29 427.168ZM1531.21 488.48L1529.67 482.848C1533.77 483.36 1537.35 483.659 1540.42 483.744C1543.5 483.829 1545.03 483.872 1545.03 483.872H1562.31V461.728H1554.38C1554.38 461.728 1553.65 461.728 1552.2 461.728C1550.83 461.728 1549.09 461.771 1546.95 461.856C1544.82 461.941 1542.6 462.112 1540.3 462.368L1538.76 456.864C1543.03 457.376 1546.65 457.675 1549.64 457.76C1552.71 457.845 1554.25 457.888 1554.25 457.888H1562.31V437.792C1561.2 437.792 1560.14 437.792 1559.11 437.792C1558.17 437.792 1557.32 437.792 1556.55 437.792C1555.27 437.792 1554.25 437.792 1553.48 437.792C1552.71 437.792 1552.24 437.792 1552.07 437.792C1552.07 437.792 1551.35 437.792 1549.9 437.792C1548.53 437.792 1546.78 437.835 1544.65 437.92C1542.51 438.005 1540.34 438.176 1538.12 438.432L1536.58 432.8C1540.77 433.312 1544.35 433.611 1547.34 433.696C1550.41 433.781 1551.94 433.824 1551.94 433.824H1586.25C1587.61 433.824 1588.55 433.44 1589.06 432.672C1589.58 431.989 1590.34 430.923 1591.37 429.472C1592.39 428.021 1593.07 426.997 1593.42 426.4C1593.93 425.803 1594.44 425.504 1594.95 425.504C1595.55 425.504 1596.62 426.101 1598.15 427.296C1599.69 428.491 1601.27 429.813 1602.89 431.264C1604.51 432.715 1605.66 433.909 1606.34 434.848C1606.69 435.275 1606.86 435.744 1606.86 436.256C1606.86 437.28 1606.43 437.792 1605.58 437.792H1577.42V457.888H1584.84C1586.21 457.888 1587.14 457.461 1587.66 456.608C1588.17 455.925 1588.85 454.987 1589.7 453.792C1590.56 452.512 1591.2 451.573 1591.62 450.976C1592.14 450.379 1592.65 450.08 1593.16 450.08C1593.59 450.08 1593.97 450.208 1594.31 450.464C1595.25 450.976 1596.32 451.787 1597.51 452.896C1598.79 453.92 1599.99 454.987 1601.1 456.096C1602.29 457.12 1603.19 458.016 1603.78 458.784C1604.13 459.211 1604.3 459.68 1604.3 460.192C1604.3 461.216 1603.87 461.728 1603.02 461.728H1577.42V483.872H1587.14C1588.34 483.872 1589.28 483.488 1589.96 482.72C1590.3 482.208 1590.77 481.525 1591.37 480.672C1591.97 479.733 1592.56 478.795 1593.16 477.856C1593.84 476.917 1594.31 476.277 1594.57 475.936C1595.08 475.339 1595.59 475.04 1596.1 475.04C1596.36 475.04 1596.74 475.168 1597.26 475.424C1598.19 475.936 1599.39 476.832 1600.84 478.112C1602.38 479.307 1603.83 480.544 1605.19 481.824C1606.56 483.104 1607.54 484.128 1608.14 484.896C1608.48 485.323 1608.65 485.792 1608.65 486.304C1608.65 487.328 1608.22 487.84 1607.37 487.84H1545.03C1545.03 487.84 1544.31 487.84 1542.86 487.84C1541.49 487.84 1539.74 487.883 1537.61 487.968C1535.56 488.053 1533.43 488.224 1531.21 488.48ZM1583.82 390.176H1557.45V415.264H1583.82V390.176Z" fill="black"/>
<path d="M358.24 308.216C355.509 308.216 354.144 306.936 354.144 304.376C354.144 304.035 354.187 302.499 354.272 299.768C354.443 297.123 354.571 293.667 354.656 289.4C354.827 285.133 354.955 280.397 355.04 275.192C355.211 269.987 355.296 264.696 355.296 259.32H327.904V265.08C327.904 266.787 326.539 268.152 323.808 269.176C321.163 270.2 318.176 270.712 314.848 270.712C312.117 270.712 310.752 269.432 310.752 266.872C310.752 266.36 310.795 264.952 310.88 262.648C310.965 260.259 311.093 257.4 311.264 254.072C311.435 250.659 311.563 247.032 311.648 243.192C311.733 239.352 311.776 235.64 311.776 232.056C311.776 227.704 311.691 224.12 311.52 221.304C311.435 218.488 311.179 216.44 310.752 215.16C310.581 214.563 310.667 214.136 311.008 213.88C311.179 213.709 311.392 213.624 311.648 213.624C311.904 213.624 312.715 213.88 314.08 214.392C315.445 214.904 317.024 215.544 318.816 216.312C320.693 216.995 322.571 217.763 324.448 218.616C326.325 219.384 327.947 220.067 329.312 220.664H355.296V211.064C355.296 206.029 355.083 202.232 354.656 199.672C354.315 197.112 353.888 195.192 353.376 193.912C353.205 193.315 353.291 192.888 353.632 192.632C353.803 192.376 354.187 192.248 354.784 192.248C355.723 192.248 357.045 192.333 358.752 192.504C360.544 192.675 362.421 192.931 364.384 193.272C366.432 193.528 368.309 193.827 370.016 194.168C371.808 194.424 373.173 194.68 374.112 194.936C374.709 195.021 375.093 195.32 375.264 195.832C375.435 196.344 375.52 196.813 375.52 197.24C375.349 198.435 374.752 199.117 373.728 199.288C372.619 199.459 371.851 199.8 371.424 200.312C370.997 200.739 370.784 201.635 370.784 203V220.664H397.024C398.048 220.664 398.859 220.195 399.456 219.256C399.712 218.744 400.053 218.061 400.48 217.208C400.992 216.355 401.419 215.629 401.76 215.032C402.187 214.264 402.741 213.88 403.424 213.88C403.68 213.88 404.064 213.965 404.576 214.136C405.941 214.563 407.52 215.203 409.312 216.056C411.104 216.824 412.896 217.635 414.688 218.488C416.48 219.341 417.973 220.109 419.168 220.792C420.021 221.304 420.448 222.072 420.448 223.096C420.448 224.461 419.808 225.4 418.528 225.912C418.357 225.997 418.187 226.083 418.016 226.168C417.845 226.253 417.675 226.381 417.504 226.552C416.821 226.979 416.352 227.576 416.096 228.344C415.925 229.027 415.84 229.837 415.84 230.776C415.84 233.933 415.883 237.261 415.968 240.76C416.053 244.259 416.181 247.587 416.352 250.744C416.523 253.816 416.651 256.376 416.736 258.424C416.821 260.472 416.864 261.667 416.864 262.008C416.864 263.629 415.456 264.952 412.64 265.976C409.909 267 406.837 267.512 403.424 267.512C400.693 267.512 399.328 266.275 399.328 263.8V259.32H370.784C370.869 266.488 370.997 273.272 371.168 279.672C371.339 285.987 371.509 291.235 371.68 295.416C371.851 299.512 371.936 301.901 371.936 302.584C371.936 303.693 371.253 304.675 369.888 305.528C368.608 306.381 366.901 307.021 364.768 307.448C362.72 307.96 360.544 308.216 358.24 308.216ZM399.328 224.504H370.784V255.48H399.328V224.504ZM355.296 224.504H327.904V255.48H355.296V224.504ZM324.704 493.088C321.973 493.088 320.608 491.851 320.608 489.376C320.608 488.608 320.693 486.475 320.864 482.976C321.035 479.392 321.205 475.04 321.376 469.92C321.632 464.8 321.76 459.595 321.76 454.304C321.76 449.355 321.675 445.045 321.504 441.376C321.333 437.621 321.077 435.189 320.736 434.08C320.651 433.483 320.736 433.056 320.992 432.8C321.419 432.544 321.888 432.459 322.4 432.544C324.533 432.971 327.179 433.867 330.336 435.232C333.579 436.512 336.48 437.749 339.04 438.944H355.808V407.968H321.504C321.504 407.968 320.821 407.968 319.456 407.968C318.091 407.968 316.341 408.053 314.208 408.224C312.075 408.309 309.899 408.48 307.68 408.736L306.144 403.104C310.411 403.616 314.037 403.915 317.024 404C320.011 404.085 321.504 404.128 321.504 404.128H355.808V391.328C355.808 387.829 355.637 385.141 355.296 383.264C355.04 381.301 354.699 379.893 354.272 379.04C354.101 378.528 354.187 378.101 354.528 377.76C354.869 377.419 355.253 377.248 355.68 377.248C356.96 377.248 358.88 377.461 361.44 377.888C364 378.229 366.56 378.656 369.12 379.168C371.765 379.595 373.771 379.979 375.136 380.32C375.989 380.661 376.416 381.344 376.416 382.368C376.416 383.819 375.819 384.629 374.624 384.8C373.515 384.885 372.704 385.184 372.192 385.696C371.765 386.208 371.552 387.147 371.552 388.512V404.128H394.72C395.659 404.128 396.341 404.085 396.768 404C397.195 403.829 397.664 403.445 398.176 402.848C398.603 402.336 399.2 401.525 399.968 400.416C400.736 399.307 401.504 398.24 402.272 397.216C403.125 396.107 403.723 395.339 404.064 394.912C404.661 394.229 405.301 393.888 405.984 393.888C406.752 393.888 407.819 394.315 409.184 395.168C410.635 395.936 412.171 396.917 413.792 398.112C415.413 399.307 416.864 400.501 418.144 401.696C419.509 402.805 420.533 403.701 421.216 404.384C421.728 404.896 421.984 405.451 421.984 406.048C421.984 407.328 421.429 407.968 420.32 407.968H371.552V438.944H386.528C386.955 438.944 387.339 438.901 387.68 438.816C388.021 438.645 388.363 438.304 388.704 437.792C389.131 437.024 389.557 436.256 389.984 435.488C390.496 434.635 390.965 433.867 391.392 433.184C391.819 432.501 392.416 432.16 393.184 432.16C393.696 432.16 394.08 432.203 394.336 432.288C395.531 432.629 397.024 433.227 398.816 434.08C400.608 434.848 402.443 435.701 404.32 436.64C406.283 437.579 407.904 438.475 409.184 439.328C410.208 439.925 410.72 440.821 410.72 442.016C410.72 442.613 410.507 443.211 410.08 443.808C409.739 444.32 409.227 444.661 408.544 444.832L407.52 445.216C406.24 445.813 405.6 447.051 405.6 448.928C405.6 452 405.643 455.584 405.728 459.68C405.899 463.776 406.069 467.829 406.24 471.84C406.411 475.765 406.539 479.093 406.624 481.824C406.795 484.555 406.88 486.048 406.88 486.304C406.88 488.011 405.515 489.333 402.784 490.272C400.053 491.296 396.939 491.808 393.44 491.808C390.795 491.808 389.472 490.571 389.472 488.096V483.104H337.888V487.584C337.888 489.205 336.523 490.528 333.792 491.552C331.147 492.576 328.117 493.088 324.704 493.088ZM389.472 442.784H337.888V479.136H389.472V442.784Z" fill="black"/>
<path d="M1536.33 652.712L1535.94 651.048H1507.02C1507.02 651.048 1505.95 651.091 1503.82 651.176C1501.68 651.176 1499.25 651.261 1496.52 651.432L1495.11 646.312C1498.44 646.739 1501.26 646.995 1503.56 647.08C1505.86 647.165 1507.02 647.208 1507.02 647.208H1519.43C1520.71 647.208 1521.61 646.824 1522.12 646.056L1525.96 641.064C1526.39 640.552 1526.9 640.296 1527.5 640.296C1527.84 640.296 1528.26 640.424 1528.78 640.68C1529.97 641.448 1531.34 642.557 1532.87 644.008C1534.41 645.373 1535.73 646.653 1536.84 647.848C1538.03 647.933 1539.57 648.061 1541.45 648.232C1543.33 648.317 1545.2 648.36 1547.08 648.36H1550.92L1554.89 623.784H1552.46C1552.46 623.784 1551.35 623.827 1549.13 623.912C1546.91 623.912 1544.43 623.997 1541.7 624.168L1540.17 619.304C1543.58 619.645 1546.48 619.859 1548.87 619.944C1551.26 619.944 1552.46 619.944 1552.46 619.944H1555.53L1558.22 603.048H1550.41C1550.41 603.048 1549.3 603.091 1547.08 603.176C1544.86 603.176 1542.39 603.304 1539.66 603.56L1538.25 598.568C1541.58 598.909 1544.43 599.123 1546.82 599.208C1549.21 599.208 1550.41 599.208 1550.41 599.208H1587.78C1589.15 599.208 1590.09 598.781 1590.6 597.928L1594.7 592.04C1595.21 591.443 1595.72 591.144 1596.23 591.144C1596.49 591.144 1596.87 591.272 1597.38 591.528C1598.41 592.04 1599.56 592.851 1600.84 593.96C1602.12 595.069 1603.36 596.179 1604.55 597.288C1605.75 598.397 1606.64 599.336 1607.24 600.104C1607.58 600.531 1607.75 601 1607.75 601.512C1607.75 602.536 1607.33 603.048 1606.47 603.048H1572.55L1569.99 619.944H1577.8C1578.57 619.944 1579.12 619.603 1579.46 618.92L1581.9 615.08C1582.41 614.227 1583.09 613.971 1583.94 614.312C1585.14 614.653 1586.59 615.208 1588.3 615.976C1590.09 616.744 1591.84 617.555 1593.54 618.408C1595.34 619.176 1596.79 619.901 1597.9 620.584C1598.41 620.925 1598.66 621.437 1598.66 622.12C1598.66 623.059 1598.28 623.741 1597.51 624.168L1596.36 624.936C1595.51 625.533 1594.95 626.131 1594.7 626.728C1594.44 627.325 1594.31 628.179 1594.31 629.288V647.848C1594.57 647.592 1594.78 647.336 1594.95 647.08L1598.66 640.936C1599.01 640.339 1599.47 640.04 1600.07 640.04C1600.5 640.04 1601.01 640.253 1601.61 640.68C1602.89 641.704 1604.47 643.112 1606.34 644.904C1608.31 646.696 1609.71 648.189 1610.57 649.384C1610.91 649.725 1611.08 650.152 1611.08 650.664C1611.08 651.688 1610.61 652.2 1609.67 652.2H1547.08C1547.08 652.2 1545.97 652.243 1543.75 652.328C1541.53 652.328 1539.06 652.456 1536.33 652.712ZM1548.74 706.088C1546.44 706.088 1545.29 705.021 1545.29 702.888C1545.29 702.376 1545.33 700.797 1545.42 698.152C1545.59 695.592 1545.71 692.307 1545.8 688.296C1545.97 684.2 1546.06 679.891 1546.06 675.368C1546.06 671.613 1545.97 668.285 1545.8 665.384C1545.71 662.397 1545.46 660.264 1545.03 658.984C1544.86 658.472 1544.9 658.045 1545.16 657.704C1545.33 657.363 1545.76 657.277 1546.44 657.448C1547.72 657.704 1549.43 658.173 1551.56 658.856C1553.69 659.453 1555.83 660.093 1557.96 660.776C1560.09 661.459 1561.8 662.099 1563.08 662.696H1581.9C1582.66 662.696 1583.22 662.397 1583.56 661.8L1585.99 657.704C1586.5 656.851 1587.23 656.595 1588.17 656.936C1589.36 657.277 1590.86 657.875 1592.65 658.728C1594.44 659.496 1596.23 660.307 1598.02 661.16C1599.82 662.013 1601.27 662.781 1602.38 663.464C1602.97 663.805 1603.27 664.36 1603.27 665.128C1603.27 665.981 1602.89 666.664 1602.12 667.176C1601.86 667.261 1601.61 667.389 1601.35 667.56C1601.18 667.645 1601.01 667.773 1600.84 667.944C1599.3 669.053 1598.54 670.504 1598.54 672.296C1598.54 674.173 1598.58 676.563 1598.66 679.464C1598.83 682.365 1598.96 685.267 1599.05 688.168C1599.22 691.069 1599.35 693.587 1599.43 695.72C1599.6 697.853 1599.69 699.133 1599.69 699.56C1599.69 700.499 1599.05 701.352 1597.77 702.12C1596.49 702.888 1594.87 703.443 1592.9 703.784C1591.03 704.211 1589.11 704.424 1587.14 704.424C1584.84 704.424 1583.69 703.357 1583.69 701.224V696.36H1561.54V701.352C1561.54 702.291 1560.86 703.101 1559.5 703.784C1558.22 704.552 1556.59 705.107 1554.63 705.448C1552.67 705.875 1550.71 706.088 1548.74 706.088ZM1499.59 706.088C1497.29 706.088 1496.14 705.021 1496.14 702.888C1496.14 702.376 1496.18 700.883 1496.26 698.408C1496.43 696.019 1496.56 693.032 1496.65 689.448C1496.82 685.864 1496.9 682.195 1496.9 678.44C1496.9 675.965 1496.9 673.448 1496.9 670.888C1496.9 668.243 1496.86 665.939 1496.78 663.976C1496.69 662.013 1496.56 660.819 1496.39 660.392C1496.22 659.795 1496.31 659.368 1496.65 659.112C1496.9 658.856 1497.33 658.771 1497.93 658.856C1499.38 659.283 1501.43 660.008 1504.07 661.032C1506.8 661.971 1509.19 662.867 1511.24 663.72H1520.2C1521.14 663.72 1521.82 663.379 1522.25 662.696C1522.59 662.184 1522.89 661.672 1523.14 661.16C1523.4 660.648 1523.7 660.093 1524.04 659.496C1524.38 658.899 1524.81 658.6 1525.32 658.6C1525.49 658.6 1525.83 658.685 1526.34 658.856C1527.11 659.027 1528.26 659.453 1529.8 660.136C1531.42 660.733 1533.09 661.416 1534.79 662.184C1536.5 662.867 1537.82 663.507 1538.76 664.104C1539.44 664.531 1539.78 665.213 1539.78 666.152C1539.78 667.261 1539.31 668.029 1538.38 668.456L1537.86 668.84C1536.93 669.437 1536.46 670.547 1536.46 672.168C1536.46 673.704 1536.5 675.88 1536.58 678.696C1536.67 681.427 1536.75 684.243 1536.84 687.144C1536.93 690.045 1537.01 692.563 1537.1 694.696C1537.18 696.744 1537.22 697.896 1537.22 698.152C1537.22 699.005 1536.63 699.773 1535.43 700.456C1534.24 701.224 1532.74 701.821 1530.95 702.248C1529.25 702.76 1527.45 703.016 1525.58 703.016C1523.27 703.016 1522.12 701.949 1522.12 699.816V696.104H1511.11V701.352C1511.11 702.803 1509.92 703.955 1507.53 704.808C1505.22 705.661 1502.58 706.088 1499.59 706.088ZM1583.69 666.664H1561.54V692.52H1583.69V666.664ZM1579.46 623.784H1569.35L1565.51 648.36H1579.46V623.784ZM1493.06 619.56L1491.66 614.44C1494.22 614.696 1496.61 614.909 1498.82 615.08C1501.13 615.165 1502.96 615.208 1504.33 615.208C1505.78 615.208 1506.5 615.208 1506.5 615.208H1521.48C1522.76 615.208 1523.7 614.781 1524.3 613.928C1524.72 613.331 1525.41 612.392 1526.34 611.112C1527.37 609.832 1528.22 608.765 1528.9 607.912C1529.33 607.4 1529.8 607.144 1530.31 607.144C1530.65 607.144 1531.08 607.272 1531.59 607.528C1533.04 608.467 1534.75 609.789 1536.71 611.496C1538.67 613.203 1540.17 614.653 1541.19 615.848C1541.53 616.189 1541.7 616.659 1541.7 617.256C1541.7 618.536 1541.19 619.176 1540.17 619.176H1506.5C1506.5 619.176 1505.69 619.176 1504.07 619.176C1502.54 619.176 1500.7 619.219 1498.57 619.304C1496.43 619.304 1494.6 619.389 1493.06 619.56ZM1522.12 667.56H1511.11V692.264H1522.12V667.56ZM1495.75 603.56L1494.34 598.312C1497.59 598.739 1500.36 598.995 1502.66 599.08C1504.97 599.165 1506.12 599.208 1506.12 599.208H1518.54C1519.73 599.208 1520.67 598.824 1521.35 598.056L1525.06 593.192C1525.41 592.595 1525.92 592.296 1526.6 592.296C1527.11 592.296 1527.54 592.424 1527.88 592.68C1529.07 593.533 1530.48 594.685 1532.1 596.136C1533.73 597.587 1535.09 598.952 1536.2 600.232C1536.54 600.573 1536.71 601 1536.71 601.512C1536.71 602.536 1536.2 603.048 1535.18 603.048H1506.25C1506.25 603.048 1505.18 603.091 1503.05 603.176C1500.91 603.176 1498.48 603.304 1495.75 603.56ZM1496.52 635.816L1495.11 630.568C1498.44 630.995 1501.26 631.251 1503.56 631.336C1505.86 631.421 1507.02 631.464 1507.02 631.464H1518.54C1519.65 631.464 1520.54 631.123 1521.22 630.44L1524.94 625.448C1525.45 624.851 1525.96 624.552 1526.47 624.552C1526.98 624.552 1527.41 624.68 1527.75 624.936C1528.95 625.789 1530.35 626.941 1531.98 628.392C1533.6 629.843 1534.96 631.208 1536.07 632.488C1536.41 632.829 1536.58 633.256 1536.58 633.768C1536.58 634.792 1536.11 635.304 1535.18 635.304H1507.02C1507.02 635.304 1505.95 635.347 1503.82 635.432C1501.68 635.432 1499.25 635.56 1496.52 635.816ZM1510.09 891.856C1507.53 891.856 1506.25 890.661 1506.25 888.272C1506.25 887.504 1506.33 885.883 1506.5 883.408C1506.67 880.933 1506.85 878.032 1507.02 874.704C1507.19 871.376 1507.27 868.048 1507.27 864.72C1507.27 856.869 1506.93 851.707 1506.25 849.232C1506.16 848.72 1506.29 848.336 1506.63 848.08C1506.89 847.653 1507.31 847.525 1507.91 847.696C1509.53 848.037 1511.41 848.592 1513.54 849.36C1515.76 850.043 1517.9 850.811 1519.94 851.664C1522.08 852.432 1523.87 853.157 1525.32 853.84H1569.99C1571.1 853.84 1571.91 853.413 1572.42 852.56C1572.68 852.133 1573.06 851.451 1573.58 850.512C1574.09 849.488 1574.51 848.677 1574.86 848.08C1575.37 847.141 1576.31 846.843 1577.67 847.184C1578.95 847.525 1580.62 848.08 1582.66 848.848C1584.8 849.616 1586.89 850.427 1588.94 851.28C1590.98 852.133 1592.56 852.901 1593.67 853.584C1594.7 854.181 1595.21 855.035 1595.21 856.144C1595.21 857.68 1594.53 858.704 1593.16 859.216C1592.82 859.472 1592.48 859.643 1592.14 859.728C1590.69 860.581 1589.96 861.861 1589.96 863.568C1589.96 866.213 1590.05 869.2 1590.22 872.528C1590.39 875.771 1590.56 878.629 1590.73 881.104C1590.98 883.579 1591.11 885.029 1591.11 885.456C1591.11 886.48 1590.34 887.376 1588.81 888.144C1587.27 888.997 1585.35 889.637 1583.05 890.064C1580.83 890.491 1578.65 890.704 1576.52 890.704C1573.96 890.704 1572.68 889.509 1572.68 887.12V882.768H1524.3V886.608C1524.3 887.632 1523.53 888.528 1521.99 889.296C1520.54 890.149 1518.71 890.789 1516.49 891.216C1514.35 891.643 1512.22 891.856 1510.09 891.856ZM1572.68 857.68H1524.3V878.928H1572.68V857.68ZM1493.06 806.736L1491.53 801.104C1495.79 801.616 1499.42 801.915 1502.41 802C1505.39 802.085 1506.89 802.128 1506.89 802.128H1579.72C1580.66 802.128 1581.34 802.085 1581.77 802C1582.19 801.829 1582.66 801.445 1583.18 800.848C1583.6 800.336 1584.2 799.525 1584.97 798.416C1585.82 797.307 1586.63 796.24 1587.4 795.216C1588.17 794.107 1588.72 793.339 1589.06 792.912C1589.66 792.229 1590.3 791.888 1590.98 791.888C1591.75 791.888 1592.82 792.315 1594.18 793.168C1595.63 793.936 1597.17 794.917 1598.79 796.112C1600.41 797.307 1601.91 798.501 1603.27 799.696C1604.64 800.805 1605.62 801.701 1606.22 802.384C1606.73 802.896 1606.98 803.493 1606.98 804.176C1606.98 805.371 1606.43 805.968 1605.32 805.968H1507.02C1507.02 805.968 1506.29 805.968 1504.84 805.968C1503.47 805.968 1501.73 806.053 1499.59 806.224C1497.46 806.309 1495.28 806.48 1493.06 806.736ZM1510.09 789.584L1508.55 784.08C1512.82 784.592 1516.45 784.891 1519.43 784.976C1522.5 785.061 1524.04 785.104 1524.04 785.104H1564.62C1565.38 785.104 1565.98 785.061 1566.41 784.976C1566.83 784.805 1567.26 784.421 1567.69 783.824C1568.11 783.312 1568.67 782.587 1569.35 781.648C1570.03 780.709 1570.72 779.771 1571.4 778.832C1572.17 777.808 1572.72 777.083 1573.06 776.656C1573.58 776.059 1574.17 775.76 1574.86 775.76C1575.79 775.76 1577.16 776.4 1578.95 777.68C1580.83 778.875 1582.66 780.24 1584.46 781.776C1586.33 783.312 1587.7 784.635 1588.55 785.744C1588.98 786.341 1589.19 786.853 1589.19 787.28C1589.19 788.389 1588.68 788.944 1587.66 788.944H1524.04C1524.04 788.944 1523.31 788.944 1521.86 788.944C1520.5 788.944 1518.75 788.987 1516.62 789.072C1514.48 789.157 1512.31 789.328 1510.09 789.584ZM1510.09 823.76L1508.55 818.128C1512.82 818.64 1516.45 818.939 1519.43 819.024C1522.5 819.109 1524.04 819.152 1524.04 819.152H1565.64C1566.41 819.152 1567.01 819.109 1567.43 819.024C1567.86 818.853 1568.29 818.512 1568.71 818C1569.31 817.317 1570.16 816.208 1571.27 814.672C1572.38 813.051 1573.19 811.941 1573.7 811.344C1574.22 810.661 1574.77 810.32 1575.37 810.32C1575.79 810.32 1576.26 810.448 1576.78 810.704C1577.89 811.216 1579.21 812.027 1580.74 813.136C1582.37 814.245 1583.9 815.397 1585.35 816.592C1586.89 817.787 1588 818.853 1588.68 819.792C1589.11 820.389 1589.32 820.944 1589.32 821.456C1589.32 822.565 1588.81 823.12 1587.78 823.12H1524.04C1524.04 823.12 1523.31 823.12 1521.86 823.12C1520.5 823.12 1518.75 823.163 1516.62 823.248C1514.48 823.333 1512.31 823.504 1510.09 823.76ZM1510.09 840.784L1508.55 835.28C1512.82 835.792 1516.45 836.091 1519.43 836.176C1522.5 836.261 1524.04 836.304 1524.04 836.304H1565.64C1566.41 836.304 1567.01 836.261 1567.43 836.176C1567.86 836.005 1568.29 835.621 1568.71 835.024C1569.31 834.341 1570.16 833.232 1571.27 831.696C1572.38 830.075 1573.19 828.965 1573.7 828.368C1574.22 827.685 1574.77 827.344 1575.37 827.344C1575.79 827.344 1576.26 827.472 1576.78 827.728C1577.89 828.24 1579.21 829.051 1580.74 830.16C1582.37 831.269 1583.9 832.464 1585.35 833.744C1586.89 834.939 1588 836.005 1588.68 836.944C1589.11 837.541 1589.32 838.053 1589.32 838.48C1589.32 839.589 1588.81 840.144 1587.78 840.144H1524.04C1524.04 840.144 1523.31 840.144 1521.86 840.144C1520.5 840.144 1518.75 840.187 1516.62 840.272C1514.48 840.357 1512.31 840.528 1510.09 840.784Z" fill="black"/>
<path d="M345.056 706.088C344.544 705.917 344.203 705.576 344.032 705.064C343.861 704.552 343.904 704.083 344.16 703.656C349.621 700.755 354.101 697.683 357.6 694.44C361.184 691.112 363.957 687.187 365.92 682.664C367.968 678.141 369.376 672.68 370.144 666.28C370.997 659.795 371.424 651.944 371.424 642.728C371.424 631.549 371.339 622.632 371.168 615.976C371.083 609.32 370.912 604.371 370.656 601.128C370.485 597.885 370.272 595.795 370.016 594.856C369.845 594.344 369.888 593.96 370.144 593.704C370.485 593.363 370.912 593.277 371.424 593.448C372.448 593.704 373.899 594.216 375.776 594.984C377.653 595.752 379.573 596.563 381.536 597.416C383.584 598.269 385.205 598.995 386.4 599.592H398.816C399.755 599.592 400.437 599.251 400.864 598.568C401.12 598.141 401.461 597.544 401.888 596.776C402.4 595.923 402.784 595.24 403.04 594.728C403.381 594.131 403.808 593.832 404.32 593.832C404.576 593.832 404.96 593.917 405.472 594.088C407.093 594.6 409.184 595.453 411.744 596.648C414.304 597.757 416.309 598.781 417.76 599.72C418.613 600.232 419.04 600.957 419.04 601.896C419.04 603.005 418.485 603.731 417.376 604.072C417.12 604.157 416.864 604.285 416.608 604.456C416.352 604.541 416.139 604.669 415.968 604.84C414.773 605.693 414.176 607.101 414.176 609.064C414.176 612.733 414.176 617.171 414.176 622.376C414.261 627.496 414.347 633 414.432 638.888C414.517 644.691 414.56 650.451 414.56 656.168C414.645 661.8 414.731 667.005 414.816 671.784C414.901 676.563 414.944 680.531 414.944 683.688C415.029 686.76 415.072 688.552 415.072 689.064C415.072 693.245 413.749 696.829 411.104 699.816C408.459 702.803 403.381 704.893 395.872 706.088C395.445 701.907 394.763 698.792 393.824 696.744C392.971 694.611 391.605 693.117 389.728 692.264C387.851 691.411 385.163 690.856 381.664 690.6C381.323 690.088 381.152 689.661 381.152 689.32C381.152 688.723 381.408 688.253 381.92 687.912H397.152C399.285 687.912 400.352 686.931 400.352 684.968V656.296H384.736C383.883 665.853 381.792 673.832 378.464 680.232C375.136 686.547 370.656 691.752 365.024 695.848C359.477 699.859 352.821 703.272 345.056 706.088ZM315.744 701.352C315.573 701.437 315.317 701.48 314.976 701.48C314.549 701.48 314.208 701.352 313.952 701.096C313.44 700.243 312.715 699.005 311.776 697.384C310.923 695.848 309.984 694.184 308.96 692.392C308.021 690.515 307.125 688.765 306.272 687.144C305.504 685.523 304.949 684.328 304.608 683.56C304.523 683.133 304.565 682.835 304.736 682.664C304.821 682.493 305.077 682.323 305.504 682.152C305.931 682.067 306.357 681.981 306.784 681.896C307.211 681.811 307.723 681.725 308.32 681.64C309.173 681.469 310.069 681.341 311.008 681.256C311.947 681.085 312.971 680.915 314.08 680.744V625.32C314.08 613.203 313.696 606.077 312.928 603.944C312.843 603.688 312.885 603.389 313.056 603.048C313.397 602.707 313.739 602.621 314.08 602.792C315.275 603.048 316.853 603.56 318.816 604.328C320.779 605.096 322.699 605.907 324.576 606.76C326.539 607.528 328.032 608.211 329.056 608.808H330.848V600.744C330.848 596.563 330.507 593.789 329.824 592.424C329.653 592.083 329.568 591.784 329.568 591.528C329.568 590.675 330.037 590.248 330.976 590.248C332.085 590.248 333.749 590.376 335.968 590.632C338.187 590.888 340.405 591.187 342.624 591.528C344.843 591.869 346.464 592.168 347.488 592.424C348.341 592.68 348.768 593.235 348.768 594.088C348.768 595.453 348.171 596.221 346.976 596.392C345.44 596.477 344.672 597.288 344.672 598.824V608.808H346.336C347.189 608.808 347.829 608.424 348.256 607.656C348.512 607.229 348.853 606.632 349.28 605.864C349.792 605.011 350.176 604.328 350.432 603.816C350.859 603.133 351.328 602.792 351.84 602.792C352.096 602.792 352.48 602.877 352.992 603.048C354.699 603.645 356.789 604.541 359.264 605.736C361.739 606.931 363.701 607.997 365.152 608.936C366.091 609.448 366.56 610.216 366.56 611.24C366.56 612.264 365.963 612.989 364.768 613.416L363.616 614.056C362.336 614.909 361.696 616.445 361.696 618.664C361.696 624.723 361.781 630.355 361.952 635.56C362.123 640.68 362.251 644.904 362.336 648.232C362.507 651.475 362.592 653.352 362.592 653.864C362.592 654.717 361.995 655.485 360.8 656.168C359.605 656.765 358.112 657.235 356.32 657.576C354.613 657.917 352.864 658.088 351.072 658.088C348.939 658.088 347.872 657.149 347.872 655.272V651.688H327.648V678.824C330.891 678.397 334.005 678.013 336.992 677.672C339.979 677.245 342.624 676.861 344.928 676.52C343.563 674.216 342.027 672.083 340.32 670.12C338.613 668.157 336.523 666.365 334.048 664.744C333.963 664.573 333.92 664.317 333.92 663.976C333.92 663.208 334.304 662.653 335.072 662.312C339.424 662.909 343.52 663.891 347.36 665.256C351.2 666.536 354.485 668.285 357.216 670.504C359.947 672.637 361.781 675.325 362.72 678.568C363.061 679.677 363.232 680.872 363.232 682.152C363.232 685.053 362.293 687.357 360.416 689.064C358.624 690.771 356.704 691.624 354.656 691.624C352.267 691.624 350.645 690.472 349.792 688.168C349.365 686.717 348.896 685.352 348.384 684.072C347.872 682.792 347.403 681.597 346.976 680.488C344.928 681.512 342.539 682.792 339.808 684.328C337.077 685.779 334.304 687.272 331.488 688.808C328.672 690.344 326.069 691.795 323.68 693.16C321.376 694.525 319.541 695.677 318.176 696.616C317.152 697.299 316.64 697.896 316.64 698.408C316.64 698.835 316.683 699.176 316.768 699.432V699.816C316.768 700.328 316.427 700.84 315.744 701.352ZM384.992 652.456H400.352V629.288H385.12V646.568C385.12 647.592 385.077 648.616 384.992 649.64C384.992 650.579 384.992 651.517 384.992 652.456ZM400.352 603.432H385.12V625.32H400.352V603.432ZM347.872 631.72H327.648V647.848H347.872V631.72ZM347.872 612.648H327.648V627.88H347.872V612.648ZM418.656 877.904C420.021 879.013 421.003 880.165 421.6 881.36C422.197 882.469 422.496 883.621 422.496 884.816C422.496 886.181 422.069 887.504 421.216 888.784C419.936 890.661 418.229 891.6 416.096 891.6C414.645 891.6 413.323 891.045 412.128 889.936C408.885 886.693 405.216 883.792 401.12 881.232C397.109 878.587 392.843 876.411 388.32 874.704C388.149 874.363 388.064 874.064 388.064 873.808C388.064 872.955 388.405 872.4 389.088 872.144C391.221 872.144 393.397 872.187 395.616 872.272C397.92 872.272 400.181 872.357 402.4 872.528C401.035 872.272 400.352 871.419 400.352 869.968V869.712H368.096V870.736C368.096 871.504 367.499 872.187 366.304 872.784C365.109 873.296 363.659 873.723 361.952 874.064C360.331 874.32 358.709 874.448 357.088 874.448C355.296 874.448 354.4 873.595 354.4 871.888C354.4 871.376 354.443 869.968 354.528 867.664C354.613 865.275 354.656 862.331 354.656 858.832C354.741 855.248 354.784 851.536 354.784 847.696C354.784 844.027 354.741 841.125 354.656 838.992C354.656 836.773 354.613 835.109 354.528 834C354.272 834.085 353.888 834.128 353.376 834.128C351.584 834.128 350.688 833.275 350.688 831.568C350.688 830.885 350.773 828.837 350.944 825.424C351.115 822.011 351.2 818 351.2 813.392C351.2 808.784 351.072 805.584 350.816 803.792C350.731 803.877 350.56 803.92 350.304 803.92H316.768C316.768 803.92 315.616 803.963 313.312 804.048C311.093 804.048 308.832 804.176 306.528 804.432L305.12 799.312C308.192 799.653 310.88 799.867 313.184 799.952C315.488 800.037 316.64 800.08 316.64 800.08H332.128C333.237 800.08 334.048 799.696 334.56 798.928C334.987 798.331 335.669 797.349 336.608 795.984C337.632 794.619 338.443 793.637 339.04 793.04C339.467 792.528 339.936 792.272 340.448 792.272C340.875 792.272 341.259 792.4 341.6 792.656C342.453 793.168 343.477 793.979 344.672 795.088C345.952 796.112 347.189 797.221 348.384 798.416C349.579 799.525 350.432 800.464 350.944 801.232C351.029 801.403 351.157 801.573 351.328 801.744C351.499 801.573 351.755 801.573 352.096 801.744C352.864 802 354.059 802.469 355.68 803.152C357.387 803.835 359.093 804.56 360.8 805.328C362.592 806.011 363.915 806.608 364.768 807.12H404.448C405.131 807.12 405.728 806.821 406.24 806.224C406.411 805.797 406.709 805.243 407.136 804.56C407.563 803.877 407.861 803.323 408.032 802.896C408.459 802.128 409.184 801.915 410.208 802.256C411.147 802.512 412.299 802.939 413.664 803.536C415.115 804.133 416.523 804.773 417.888 805.456C419.339 806.139 420.491 806.736 421.344 807.248C422.112 807.589 422.496 808.229 422.496 809.168C422.496 810.107 422.027 810.747 421.088 811.088L420.192 811.472C418.997 812.155 418.4 813.477 418.4 815.44C418.4 817.232 418.4 819.152 418.4 821.2C418.485 823.248 418.528 825.04 418.528 826.576C418.613 828.112 418.656 829.093 418.656 829.52C418.656 830.544 417.717 831.397 415.84 832.08C414.048 832.677 412.171 833.061 410.208 833.232C411.403 833.744 412.597 834.299 413.792 834.896C415.072 835.493 416.096 836.005 416.864 836.432C417.632 836.944 418.016 837.627 418.016 838.48C418.016 839.504 417.504 840.229 416.48 840.656C415.968 840.827 415.627 840.997 415.456 841.168C414.261 841.851 413.664 843.259 413.664 845.392C413.664 848.549 413.707 851.792 413.792 855.12C413.877 858.448 413.963 861.392 414.048 863.952C414.133 866.427 414.176 868.005 414.176 868.688C414.176 869.456 413.579 870.139 412.384 870.736C411.275 871.333 409.867 871.803 408.16 872.144C406.453 872.485 404.789 872.656 403.168 872.656C406.24 872.997 409.099 873.552 411.744 874.32C414.475 875.088 416.779 876.283 418.656 877.904ZM346.08 883.024C346.08 883.792 345.44 884.475 344.16 885.072C342.88 885.669 341.344 886.139 339.552 886.48C337.76 886.821 336.011 886.992 334.304 886.992C332.427 886.992 331.488 886.096 331.488 884.304V879.184H322.528V887.248C322.528 888.016 321.931 888.699 320.736 889.296C319.541 889.893 318.091 890.363 316.384 890.704C314.677 891.045 313.013 891.216 311.392 891.216C309.429 891.216 308.448 890.32 308.448 888.528C308.448 887.845 308.491 886.011 308.576 883.024C308.747 880.123 308.875 876.453 308.96 872.016C309.045 867.579 309.088 862.8 309.088 857.68C309.088 850.597 308.789 846.16 308.192 844.368C308.021 843.941 308.064 843.6 308.32 843.344C308.576 843.088 308.96 843.003 309.472 843.088C310.496 843.344 311.861 843.771 313.568 844.368C315.36 844.965 317.195 845.605 319.072 846.288C320.949 846.971 322.528 847.611 323.808 848.208H329.696C330.635 848.208 331.275 847.867 331.616 847.184C331.872 846.757 332.213 846.16 332.64 845.392C333.067 844.624 333.408 844.027 333.664 843.6C334.005 843.003 334.475 842.704 335.072 842.704C335.243 842.704 335.584 842.789 336.096 842.96C337.12 843.216 338.443 843.685 340.064 844.368C341.685 844.965 343.264 845.648 344.8 846.416C346.421 847.099 347.659 847.739 348.512 848.336C349.365 848.677 349.792 849.36 349.792 850.384C349.792 851.408 349.28 852.133 348.256 852.56L347.488 852.944C346.123 853.712 345.44 855.205 345.44 857.424C345.44 858.875 345.483 860.923 345.568 863.568C345.653 866.213 345.696 868.987 345.696 871.888C345.781 874.704 345.867 877.179 345.952 879.312C346.037 881.36 346.08 882.597 346.08 883.024ZM376.16 789.328H359.648C359.648 789.328 358.496 789.371 356.192 789.456C353.973 789.456 351.499 789.584 348.768 789.84L347.488 785.232C350.731 785.573 353.547 785.787 355.936 785.872C358.325 785.872 359.52 785.872 359.52 785.872H376.16V783.44C376.16 781.733 376.032 780.325 375.776 779.216C375.52 778.107 375.307 777.381 375.136 777.04C374.88 776.613 374.837 776.187 375.008 775.76C375.093 775.419 375.477 775.248 376.16 775.248C376.501 775.248 377.397 775.333 378.848 775.504C380.384 775.589 382.091 775.76 383.968 776.016C385.845 776.187 387.637 776.4 389.344 776.656C391.051 776.912 392.245 777.125 392.928 777.296C393.781 777.552 394.208 778.064 394.208 778.832C394.208 780.027 393.653 780.709 392.544 780.88C390.923 781.051 390.112 781.776 390.112 783.056V785.872H402.272C403.637 785.872 404.576 785.445 405.088 784.592C405.515 783.909 406.197 782.885 407.136 781.52C408.16 780.155 408.843 779.216 409.184 778.704C409.696 778.107 410.208 777.808 410.72 777.808C411.147 777.808 411.488 777.936 411.744 778.192C412.683 778.704 413.835 779.472 415.2 780.496C416.565 781.52 417.845 782.587 419.04 783.696C420.32 784.805 421.259 785.744 421.856 786.512C422.027 786.768 422.155 787.024 422.24 787.28C422.325 787.451 422.368 787.664 422.368 787.92C422.368 788.859 421.941 789.328 421.088 789.328H390.112V797.52H397.024C398.304 797.52 399.2 797.136 399.712 796.368L403.424 791.12C403.851 790.608 404.32 790.352 404.832 790.352C405.259 790.352 405.6 790.437 405.856 790.608C406.709 791.12 407.733 791.888 408.928 792.912C410.123 793.851 411.275 794.832 412.384 795.856C413.493 796.88 414.304 797.776 414.816 798.544C415.157 798.885 415.328 799.312 415.328 799.824C415.328 800.677 414.944 801.104 414.176 801.104H367.328C367.328 801.104 366.219 801.147 364 801.232C361.781 801.232 359.307 801.317 356.576 801.488L355.168 796.88C358.496 797.221 361.355 797.435 363.744 797.52C366.133 797.52 367.328 797.52 367.328 797.52H376.16V789.328ZM382.944 877.52C383.627 877.861 383.797 878.501 383.456 879.44C383.115 880.293 382.56 880.677 381.792 880.592C381.451 880.507 381.152 880.464 380.896 880.464C380.725 880.379 380.512 880.336 380.256 880.336C379.915 880.336 379.616 880.421 379.36 880.592C379.104 880.677 378.72 880.848 378.208 881.104C375.136 882.64 371.68 884.091 367.84 885.456C364.085 886.907 360.245 888.144 356.32 889.168C352.395 890.277 348.683 891.173 345.184 891.856C344.672 891.6 344.331 891.216 344.16 890.704C344.075 890.192 344.16 889.765 344.416 889.424C346.635 888.4 349.195 886.992 352.096 885.2C354.997 883.493 357.813 881.573 360.544 879.44C363.36 877.307 365.664 875.216 367.456 873.168C367.883 872.741 368.224 872.357 368.48 872.016C368.736 871.589 368.992 871.205 369.248 870.864C369.504 870.523 369.76 870.352 370.016 870.352C370.187 870.352 370.827 870.651 371.936 871.248C373.131 871.845 374.453 872.571 375.904 873.424C377.355 874.277 378.72 875.088 380 875.856C381.365 876.624 382.347 877.179 382.944 877.52ZM400.608 835.408C400.779 834.981 401.077 834.384 401.504 833.616C402.016 832.848 402.4 832.251 402.656 831.824C402.997 831.227 403.424 830.928 403.936 830.928C404.107 830.928 404.448 831.013 404.96 831.184L405.728 831.44C405.643 831.269 405.6 831.056 405.6 830.8V829.776H363.872V830.416C363.872 831.013 363.531 831.525 362.848 831.952C362.165 832.379 361.355 832.763 360.416 833.104C362.123 833.701 363.829 834.341 365.536 835.024C367.328 835.621 368.565 836.091 369.248 836.432H398.688C399.541 836.432 400.181 836.091 400.608 835.408ZM368.096 859.472V866.256H400.352V859.472H368.096ZM384.736 818.896V810.576H382.176C380.384 814.501 377.909 817.744 374.752 820.304C371.595 822.864 368.352 824.869 365.024 826.32H405.6V823.248H391.136C389.173 823.248 387.595 822.907 386.4 822.224C385.291 821.541 384.736 820.432 384.736 818.896ZM322.528 852.048V875.344H331.488V852.048H322.528ZM319.968 787.92C319.968 787.92 318.944 787.963 316.896 788.048C314.848 788.048 312.629 788.133 310.24 788.304L308.832 783.184C311.819 783.611 314.421 783.867 316.64 783.952C318.859 784.037 319.968 784.08 319.968 784.08H329.568C330.677 784.08 331.488 783.696 332 782.928C332.427 782.331 333.067 781.477 333.92 780.368C334.773 779.259 335.456 778.405 335.968 777.808C336.48 777.296 336.949 777.04 337.376 777.04C337.803 777.04 338.187 777.168 338.528 777.424C339.723 778.107 341.173 779.301 342.88 781.008C344.672 782.715 345.995 784.165 346.848 785.36C347.189 785.701 347.36 786.128 347.36 786.64C347.36 787.493 346.976 787.92 346.208 787.92H319.968ZM368.096 849.616V856.016H400.352V849.616H368.096ZM310.368 836.432L308.96 831.312C311.947 831.739 314.549 831.995 316.768 832.08C318.987 832.165 320.096 832.208 320.096 832.208H329.312C330.421 832.208 331.232 831.824 331.744 831.056C332.171 830.459 332.811 829.605 333.664 828.496C334.603 827.387 335.328 826.533 335.84 825.936C336.352 825.424 336.821 825.168 337.248 825.168C337.675 825.168 338.059 825.296 338.4 825.552C339.595 826.32 341.045 827.557 342.752 829.264C344.544 830.885 345.867 832.293 346.72 833.488C346.976 833.829 347.104 834.213 347.104 834.64C347.104 835.579 346.72 836.048 345.952 836.048H320.096C320.096 836.048 319.072 836.091 317.024 836.176C314.976 836.176 312.757 836.261 310.368 836.432ZM345.952 820.048H320.096C320.096 820.048 319.072 820.091 317.024 820.176C314.976 820.176 312.757 820.261 310.368 820.432L308.96 815.312C311.947 815.739 314.549 815.995 316.768 816.08C318.987 816.165 320.096 816.208 320.096 816.208H329.312C330.421 816.208 331.232 815.824 331.744 815.056C332.171 814.459 332.811 813.605 333.664 812.496C334.603 811.387 335.328 810.533 335.84 809.936C336.352 809.424 336.821 809.168 337.248 809.168C337.675 809.168 338.059 809.296 338.4 809.552C339.595 810.32 341.045 811.557 342.752 813.264C344.544 814.885 345.867 816.293 346.72 817.488C346.976 817.829 347.104 818.213 347.104 818.64C347.104 819.579 346.72 820.048 345.952 820.048ZM368.096 839.888V846.16H400.352V839.888H368.096ZM370.016 810.576H363.872V823.12C365.323 821.413 366.56 819.451 367.584 817.232C368.608 815.013 369.419 812.795 370.016 810.576ZM405.6 815.312V810.576H396.384V813.008C396.384 814.544 397.365 815.312 399.328 815.312H405.6Z" fill="black"/>
</svg>
